<svg width="14" height="12" viewBox="0 0 14 12" fill="none" xmlns="http://www.w3.org/2000/svg">
<path fill-rule="evenodd" clip-rule="evenodd" d="M8.3125 8.1875C8.42853 8.1875 8.53981 8.23359 8.62186 8.31564C8.70391 8.39769 8.75 8.50897 8.75 8.625V11.25C8.75 11.366 8.70391 11.4773 8.62186 11.5594C8.53981 11.6414 8.42853 11.6875 8.3125 11.6875H7.4375C7.32147 11.6875 7.21019 11.6414 7.12814 11.5594C7.04609 11.4773 7 11.366 7 11.25V8.625C7 8.50897 7.04609 8.39769 7.12814 8.31564C7.21019 8.23359 7.32147 8.1875 7.4375 8.1875H8.3125ZM6.125 9.0625V10.375H1.53125C1.3572 10.375 1.19028 10.3059 1.06721 10.1828C0.94414 10.0597 0.875 9.8928 0.875 9.71875C0.875 9.5447 0.94414 9.37778 1.06721 9.25471C1.19028 9.13164 1.3572 9.0625 1.53125 9.0625H6.125ZM12.4688 9.0625C12.6428 9.0625 12.8097 9.13164 12.9328 9.25471C13.0559 9.37778 13.125 9.5447 13.125 9.71875C13.125 9.8928 13.0559 10.0597 12.9328 10.1828C12.8097 10.3059 12.6428 10.375 12.4688 10.375H9.625V9.0625H12.4688ZM4.8125 4.25C4.92853 4.25 5.03981 4.29609 5.12186 4.37814C5.20391 4.46019 5.25 4.57147 5.25 4.6875V7.3125C5.25 7.42853 5.20391 7.53981 5.12186 7.62186C5.03981 7.70391 4.92853 7.75 4.8125 7.75H3.9375C3.82147 7.75 3.71019 7.70391 3.62814 7.62186C3.54609 7.53981 3.5 7.42853 3.5 7.3125V4.6875C3.5 4.57147 3.54609 4.46019 3.62814 4.37814C3.71019 4.29609 3.82147 4.25 3.9375 4.25H4.8125ZM2.625 5.34375V6.65625H1.53125C1.3572 6.65625 1.19028 6.58711 1.06721 6.46404C0.94414 6.34097 0.875 6.17405 0.875 6C0.875 5.82595 0.94414 5.65903 1.06721 5.53596C1.19028 5.41289 1.3572 5.34375 1.53125 5.34375H2.625ZM12.4688 5.34375C12.6428 5.34375 12.8097 5.41289 12.9328 5.53596C13.0559 5.65903 13.125 5.82595 13.125 6C13.125 6.17405 13.0559 6.34097 12.9328 6.46404C12.8097 6.58711 12.6428 6.65625 12.4688 6.65625H6.125V5.34375H12.4688ZM10.0625 0.53125C10.1785 0.53125 10.2898 0.577344 10.3719 0.659391C10.4539 0.741438 10.5 0.852718 10.5 0.96875V3.59375C10.5 3.70978 10.4539 3.82106 10.3719 3.90311C10.2898 3.98516 10.1785 4.03125 10.0625 4.03125H9.1875C9.07147 4.03125 8.96019 3.98516 8.87814 3.90311C8.79609 3.82106 8.75 3.70978 8.75 3.59375V0.96875C8.75 0.852718 8.79609 0.741438 8.87814 0.659391C8.96019 0.577344 9.07147 0.53125 9.1875 0.53125H10.0625ZM7.875 1.625V2.9375H1.53125C1.3572 2.9375 1.19028 2.86836 1.06721 2.74529C0.94414 2.62222 0.875 2.4553 0.875 2.28125C0.875 2.1072 0.94414 1.94028 1.06721 1.81721C1.19028 1.69414 1.3572 1.625 1.53125 1.625H7.875ZM12.4688 1.625C12.6428 1.625 12.8097 1.69414 12.9328 1.81721C13.0559 1.94028 13.125 2.1072 13.125 2.28125C13.125 2.4553 13.0559 2.62222 12.9328 2.74529C12.8097 2.86836 12.6428 2.9375 12.4688 2.9375H11.375V1.625H12.4688Z" fill="#858699"/>
</svg>
