<svg width="10" height="10" viewBox="0 0 10 10" fill="none" xmlns="http://www.w3.org/2000/svg">
<path d="M0.598462 0.598459C0.85474 0.34218 1.27026 0.34218 1.52654 0.598459L5 4.07162L8.47349 0.598459C8.72978 0.34218 9.14523 0.34218 9.40151 0.598459C9.6578 0.854738 9.6578 1.27026 9.40151 1.52654L5.92838 5L9.40151 8.47348C9.63453 8.70641 9.6557 9.07102 9.46504 9.32792L9.40151 9.40151C9.14523 9.6578 8.72978 9.6578 8.47349 9.40151L5 5.92837L1.52654 9.40151C1.27026 9.6578 0.85474 9.6578 0.598462 9.40151C0.342183 9.14522 0.342183 8.72977 0.598462 8.47348L4.07163 5L0.598462 1.52654C0.365475 1.29355 0.3443 0.928973 0.534919 0.672064L0.598462 0.598459Z" fill="#858699"/>
</svg>
