<svg width="8" height="4" viewBox="0 0 8 4" fill="none" xmlns="http://www.w3.org/2000/svg">
<path d="M1.70222 0.272931C1.59016 0.166213 1.44083 0.107532 1.2861 0.109419C1.13137 0.111306 0.983511 0.17361 0.874093 0.283028C0.764675 0.392446 0.70237 0.540306 0.700484 0.695035C0.698597 0.849764 0.757278 0.999099 0.863995 1.11115L3.408 3.65515C3.48576 3.73301 3.57811 3.79478 3.67977 3.83693C3.78143 3.87907 3.89039 3.90076 4.00044 3.90076C4.11049 3.90076 4.21945 3.87907 4.32111 3.83693C4.42277 3.79478 4.51512 3.73301 4.59288 3.65515L7.13599 1.11115C7.24271 0.999099 7.30139 0.849764 7.29951 0.695035C7.29762 0.540306 7.23532 0.392446 7.1259 0.283028C7.01648 0.17361 6.86862 0.111306 6.71389 0.109419C6.55916 0.107532 6.40983 0.166213 6.29777 0.272931L4 2.56893L1.70222 0.272931Z" fill="#858699"/>
</svg>
