<svg width="12" height="12" viewBox="0 0 12 12" fill="none" xmlns="http://www.w3.org/2000/svg">
<g clip-path="url(#clip0_95_162)">
<path fill-rule="evenodd" clip-rule="evenodd" d="M2.32472 1.79362C2.452 1.18555 2.98815 0.75 3.60939 0.75H9.00015C9.1671 0.75 9.3255 0.824228 9.43237 0.952583C9.53925 1.08094 9.58358 1.25014 9.55328 1.4144L8.24078 8.53942C8.18505 8.84212 7.8966 9.04327 7.59412 8.9922C7.56352 8.9973 7.5321 9 7.5 9H2.4375C2.12684 9 1.875 9.25185 1.875 9.5625C1.875 9.87315 2.12684 10.125 2.4375 10.125H7.94625C8.3964 10.125 8.78295 9.80513 8.86718 9.36292L10.1349 2.70726C10.1931 2.40208 10.4875 2.20182 10.7927 2.25994C11.0979 2.31808 11.2982 2.61259 11.2401 2.91776L9.9723 9.57345C9.78705 10.5462 8.93655 11.25 7.94625 11.25H2.4375C1.50552 11.25 0.75 10.4945 0.75 9.5625C0.75 9.52245 0.751395 9.48277 0.75414 9.4434C0.746831 9.38377 0.749042 9.3219 0.762045 9.2598L2.32472 1.79362ZM4.01965 2.25C3.85825 2.25 3.71495 2.35329 3.6639 2.50642L3.5389 2.88142C3.45796 3.12424 3.63869 3.375 3.89465 3.375H6.85408C7.0155 3.375 7.1588 3.27171 7.20984 3.11858L7.33484 2.74358C7.41578 2.50076 7.23505 2.25 6.97909 2.25H4.01965Z" fill="#858699"/>
</g>
<defs>
<clipPath id="clip0_95_162">
<rect width="12" height="12" fill="white"/>
</clipPath>
</defs>
</svg>
