<svg width="12" height="12" viewBox="0 0 12 12" fill="none" xmlns="http://www.w3.org/2000/svg">
<path d="M3.1875 0.75C2.54103 0.75 1.92105 1.00681 1.46393 1.46393C1.00681 1.92105 0.75 2.54103 0.75 3.1875V6.5625C0.75 7.20897 1.00681 7.82895 1.46393 8.28607C1.92105 8.74319 2.54103 9 3.1875 9H6.5625C7.20897 9 7.82895 8.74319 8.28607 8.28607C8.74319 7.82895 9 7.20897 9 6.5625V3.1875C9 2.54103 8.74319 1.92105 8.28607 1.46393C7.82895 1.00681 7.20897 0.75 6.5625 0.75H3.1875ZM1.875 3.1875C1.875 2.463 2.463 1.875 3.1875 1.875H6.5625C7.287 1.875 7.875 2.463 7.875 3.1875V6.5625C7.875 6.9106 7.73672 7.24444 7.49058 7.49058C7.24444 7.73672 6.9106 7.875 6.5625 7.875H3.1875C2.8394 7.875 2.50556 7.73672 2.25942 7.49058C2.01328 7.24444 1.875 6.9106 1.875 6.5625V3.1875ZM3.78225 10.602C3.417 10.2638 3.735 9.75 4.23375 9.75C4.41675 9.75 4.58775 9.82875 4.74225 9.92625C4.944 10.0522 5.1825 10.125 5.4375 10.125H8.8125C9.17025 10.125 9.495 9.9825 9.73125 9.75H9.75V9.73125C9.9825 9.49425 10.125 9.17025 10.125 8.8125V5.4375C10.125 5.1825 10.0522 4.944 9.92625 4.74225C9.82875 4.58775 9.75 4.41675 9.75 4.23375C9.75 3.73575 10.263 3.41625 10.602 3.78225C11.004 4.21725 11.25 4.7985 11.25 5.4375V8.8125C11.25 9.1326 11.187 9.44956 11.0645 9.74529C10.942 10.041 10.7624 10.3097 10.5361 10.5361C10.3097 10.7624 10.041 10.942 9.74529 11.0645C9.44956 11.187 9.1326 11.25 8.8125 11.25H5.4375C4.82368 11.2509 4.23228 11.0194 3.78225 10.602Z" fill="#575BC7"/>
</svg>
