<svg width="16" height="17" viewBox="0 0 16 17" fill="none" xmlns="http://www.w3.org/2000/svg">
<path d="M10.5914 1.5C11.9984 1.5 13.2164 2.47789 13.5205 3.85169L14.8819 10.0023C14.9604 10.3571 15 10.7195 15 11.0829V13.0181C15 14.3888 13.8888 15.5 12.5181 15.5H3.48193C2.1112 15.5 1 14.3888 1 13.0181V11.0829C1 10.7195 1.03962 10.3571 1.11815 10.0023L2.47949 3.85169C2.78356 2.47789 4.00156 1.5 5.4086 1.5H10.5914ZM10.5914 3H5.4086C4.70508 3 4.09608 3.48894 3.94405 4.17584L2.5827 10.3265L2.548 10.51L5.01028 10.5108C5.55851 10.5108 6.00293 10.9552 6.00293 11.5034C6.00293 12.0517 6.44735 12.4961 6.99557 12.4961H9.05948C9.6077 12.4961 10.0521 12.0517 10.0521 11.5034C10.0521 10.9552 10.4965 10.5108 11.0448 10.5108L13.4528 10.5102C13.4426 10.4487 13.4308 10.3874 13.4173 10.3265L12.056 4.17584C11.9039 3.48894 11.2949 3 10.5914 3Z" fill="#858699"/>
</svg>
