<svg width="12" height="13" viewBox="0 0 12 13" fill="none" xmlns="http://www.w3.org/2000/svg">
<path fill-rule="evenodd" clip-rule="evenodd" d="M10.5 9.7204C11.3829 9.3346 11.9999 8.45362 11.9999 7.42853V3C11.9999 1.61929 10.8806 0.5 9.4999 0.5H5.07132C4.04623 0.5 3.16524 1.11697 2.77942 1.99983H8C9.3807 1.99983 10.5 3.11912 10.5 4.49983V9.7204ZM2.5 12.4998C1.11929 12.4998 0 11.3805 0 9.9998V5.57126C0 4.19055 1.11929 3.07126 2.5 3.07126H6.92853C8.3092 3.07126 9.4285 4.19055 9.4285 5.57126V9.9998C9.4285 11.3805 8.3092 12.4998 6.92853 12.4998H2.5ZM6 7.99979C6 8.8282 5.32843 9.4998 4.5 9.4998C3.67157 9.4998 3 8.8282 3 7.99979C3 7.17136 3.67157 6.49979 4.5 6.49979C5.32843 6.49979 6 7.17136 6 7.99979ZM7.5 7.99979C7.5 9.6566 6.15685 10.9998 4.5 10.9998C2.84315 10.9998 1.5 9.6566 1.5 7.99979C1.5 6.34293 2.84315 4.99979 4.5 4.99979C6.15685 4.99979 7.5 6.34293 7.5 7.99979Z" fill="#858699"/>
</svg>
