<svg width="14" height="14" viewBox="0 0 14 14" fill="none" xmlns="http://www.w3.org/2000/svg">
<path d="M0 0.8C0 0.52 1.86265e-08 0.38 0.054 0.273C0.102151 0.179033 0.178813 0.102721 0.273 0.0549999C0.38 -5.21541e-08 0.52 0 0.8 0H13.2C13.48 0 13.62 1.86265e-08 13.727 0.054C13.821 0.102151 13.8973 0.178813 13.945 0.273C14 0.38 14 0.52 14 0.8V1.2C14 1.48 14 1.62 13.945 1.727C13.8973 1.82119 13.821 1.89785 13.727 1.946C13.62 2 13.48 2 13.2 2H0.8C0.52 2 0.38 2 0.273 1.946C0.179033 1.89785 0.102721 1.82119 0.0549999 1.727C-5.21541e-08 1.62 0 1.48 0 1.2V0.8ZM0 12.8C0 12.52 1.86265e-08 12.38 0.054 12.273C0.102151 12.179 0.178813 12.1027 0.273 12.055C0.38 12 0.52 12 0.8 12H13.2C13.48 12 13.62 12 13.727 12.055C13.8208 12.1029 13.8971 12.1792 13.945 12.273C14 12.38 14 12.52 14 12.8V13.2C14 13.48 14 13.62 13.945 13.727C13.8971 13.8208 13.8208 13.8971 13.727 13.945C13.62 14 13.48 14 13.2 14H0.8C0.52 14 0.38 14 0.273 13.945C0.179185 13.8971 0.10289 13.8208 0.0549999 13.727C-5.21541e-08 13.62 0 13.48 0 13.2V12.8ZM0 8.8C0 8.52 1.86265e-08 8.38 0.054 8.273C0.102151 8.17903 0.178813 8.10272 0.273 8.055C0.38 8 0.52 8 0.8 8H13.2C13.48 8 13.62 8 13.727 8.055C13.8208 8.10289 13.8971 8.17918 13.945 8.273C14 8.38 14 8.52 14 8.8V9.2C14 9.48 14 9.62 13.945 9.727C13.8971 9.82082 13.8208 9.89711 13.727 9.945C13.62 10 13.48 10 13.2 10H0.8C0.52 10 0.38 10 0.273 9.945C0.179185 9.89711 0.10289 9.82082 0.0549999 9.727C-5.21541e-08 9.62 0 9.48 0 9.2V8.8ZM0 4.8C0 4.52 1.86265e-08 4.38 0.054 4.273C0.102151 4.17903 0.178813 4.10272 0.273 4.055C0.38 4 0.52 4 0.8 4H13.2C13.48 4 13.62 4 13.727 4.054C13.821 4.10215 13.8973 4.17881 13.945 4.273C14 4.38 14 4.52 14 4.8V5.2C14 5.48 14 5.62 13.945 5.727C13.8971 5.82082 13.8208 5.89711 13.727 5.945C13.62 6 13.48 6 13.2 6H0.8C0.52 6 0.38 6 0.273 5.946C0.179033 5.89785 0.102721 5.82119 0.0549999 5.727C-5.21541e-08 5.62 0 5.48 0 5.2V4.8Z" fill="#4C4F6B"/>
</svg>
