<svg width="14" height="15" viewBox="0 0 14 15" fill="none" xmlns="http://www.w3.org/2000/svg">
<path d="M13.2458 9.5C13.6255 9.5 13.9393 9.7822 13.9889 10.1482L13.9958 10.25V11.7475C13.9958 13.2083 12.8567 14.4034 11.4177 14.4922L11.2504 14.4975L9.7513 14.5C9.3371 14.5007 9.0007 14.1655 9 13.7513C8.99936 13.3716 9.281 13.0573 9.647 13.007L9.7487 13L11.2479 12.9975C11.8943 12.9964 12.4255 12.5047 12.4893 11.8751L12.4958 11.7475V10.25C12.4958 9.8358 12.8316 9.5 13.2458 9.5ZM0.75 9.5C1.16421 9.5 1.5 9.8358 1.5 10.25V11.7475C1.5 12.437 2.05836 12.9963 2.74789 12.9975L4.24703 13C4.66125 13.0007 4.99646 13.3371 4.99576 13.7513C4.99506 14.1655 4.65871 14.5007 4.2445 14.5L2.74535 14.4975C1.22839 14.4949 0 13.2644 0 11.7475V10.25C0 9.8358 0.33579 9.5 0.75 9.5ZM7 5.5C8.10457 5.5 9 6.39543 9 7.5C9 8.60457 8.10457 9.5 7 9.5C5.89543 9.5 5 8.60457 5 7.5C5 6.39543 5.89543 5.5 7 5.5ZM9.7513 0.500001L11.2504 0.502541C12.7674 0.505101 13.9958 1.73556 13.9958 3.25253V4.75C13.9958 5.16422 13.66 5.5 13.2458 5.5C12.8316 5.5 12.4958 5.16422 12.4958 4.75V3.25253C12.4958 2.563 11.9374 2.0037 11.2479 2.00253L9.7487 2C9.3345 1.9993 8.9993 1.66295 9 1.24873C9.0007 0.834521 9.3371 0.499303 9.7513 0.500001ZM4.24873 0.500001C4.66295 0.499304 4.9993 0.834521 5 1.24873C5.0007 1.66295 4.66548 1.9993 4.25127 2L2.75212 2.00253C2.06259 2.0037 1.50424 2.563 1.50424 3.25253V4.75C1.50424 5.16422 1.16845 5.5 0.75424 5.5C0.34002 5.5 0.00424004 5.16422 0.00424004 4.75V3.25253C0.00424004 1.73556 1.23262 0.505101 2.74959 0.502541L4.24873 0.500001Z" fill="#858699"/>
</svg>
