<svg width="18" height="19" viewBox="0 0 18 19" fill="none" xmlns="http://www.w3.org/2000/svg">
<rect y="0.5" width="18" height="18" rx="4" fill="#272832"/>
<path fill-rule="evenodd" clip-rule="evenodd" d="M9 3.375C12.3827 3.375 15.125 6.11726 15.125 9.5C15.125 12.8827 12.3827 15.625 9 15.625C5.61726 15.625 2.875 12.8827 2.875 9.5C2.875 6.11726 5.61726 3.375 9 3.375ZM8.4854 14.2853C8.58612 14.2961 8.67188 14.2156 8.67188 14.1143V12.2142C8.67188 12.1128 8.58599 12.0323 8.48523 12.0432C8.00874 12.0946 7.56945 12.2152 7.19069 12.3819C7.11063 12.4172 7.07251 12.5082 7.10153 12.5907C7.22125 12.9311 7.35761 13.2443 7.5056 13.525C7.62809 13.7573 7.75609 13.9627 7.88577 14.1404C7.91008 14.1737 7.94585 14.1969 7.98619 14.2055C8.14967 14.2406 8.31623 14.2674 8.4854 14.2853ZM9.51477 12.0432C9.41402 12.0323 9.32812 12.1128 9.32812 12.2142V14.1143C9.32812 14.2156 9.41388 14.2961 9.5146 14.2853C9.68377 14.2674 9.85033 14.2406 10.0138 14.2055C10.0541 14.1969 10.0899 14.1737 10.1142 14.1404C10.2439 13.9627 10.3719 13.7573 10.4944 13.525C10.6424 13.2443 10.7788 12.9311 10.8985 12.5907C10.9275 12.5082 10.8894 12.4172 10.8093 12.3819C10.4306 12.2152 9.99126 12.0946 9.51477 12.0432ZM9.49249 11.3816C9.40029 11.3732 9.32812 11.297 9.32812 11.2044V10.0031C9.32812 9.90647 9.40647 9.82812 9.50312 9.82812H11.22C11.3189 9.82812 11.3983 9.91006 11.3933 10.0088C11.3646 10.569 11.2898 11.1038 11.1795 11.6014C11.1557 11.7085 11.039 11.7648 10.9372 11.7238C10.5022 11.5489 10.0129 11.4287 9.49249 11.3816ZM8.49688 9.17188C8.59353 9.17188 8.67188 9.09353 8.67188 8.99688V7.79561C8.67188 7.70304 8.59971 7.62678 8.50751 7.61843C7.98707 7.57133 7.4978 7.45113 7.0628 7.27621C6.96101 7.23526 6.84431 7.29147 6.82057 7.39858C6.71025 7.89625 6.63536 8.431 6.60674 8.99116C6.60169 9.08994 6.68109 9.17188 6.77999 9.17188H8.49688ZM9.49249 7.61843C9.40029 7.62678 9.32812 7.70304 9.32812 7.79561V8.99688C9.32812 9.09353 9.40647 9.17188 9.50312 9.17188H11.22C11.3189 9.17188 11.3983 9.08994 11.3933 8.99116C11.3646 8.431 11.2898 7.89625 11.1795 7.39858C11.1557 7.29147 11.039 7.23526 10.9372 7.2762C10.5022 7.45112 10.0129 7.57132 9.49249 7.61843ZM9.51477 6.9568C9.41402 6.96766 9.32812 6.88721 9.32812 6.78587V4.88569C9.32812 4.78442 9.41388 4.70398 9.5146 4.71469C9.68377 4.73268 9.85033 4.75943 10.0138 4.79448C10.0541 4.80312 10.0899 4.82626 10.1142 4.85959C10.2439 5.03733 10.3719 5.24272 10.4944 5.47504C10.6424 5.75573 10.7788 6.06894 10.8985 6.40928C10.9275 6.4918 10.8894 6.58284 10.8093 6.61808C10.4306 6.78482 9.99126 6.90539 9.51477 6.9568ZM8.48523 6.9568C8.58599 6.96767 8.67188 6.88721 8.67188 6.78587V4.88569C8.67188 4.78442 8.58612 4.70398 8.4854 4.71469C8.31622 4.73268 8.14967 4.75943 7.98618 4.79448C7.94584 4.80312 7.91008 4.82626 7.88577 4.85959C7.75608 5.03733 7.62809 5.24272 7.5056 5.47504C7.35761 5.75573 7.22125 6.06894 7.10153 6.40928C7.07251 6.4918 7.11063 6.58284 7.19069 6.61809C7.56945 6.78482 8.00874 6.90539 8.48523 6.9568ZM8.50751 11.3816C8.59971 11.3732 8.67188 11.297 8.67188 11.2044V10.0031C8.67188 9.90647 8.59353 9.82812 8.49688 9.82812H6.77999C6.68109 9.82812 6.60169 9.91006 6.60674 10.0088C6.63536 10.569 6.71025 11.1038 6.82057 11.6014C6.84431 11.7085 6.96101 11.7648 7.0628 11.7238C7.4978 11.5489 7.98707 11.4287 8.50751 11.3816ZM11.7047 12.9619C11.6183 12.8786 11.4786 12.9192 11.4356 13.0312C11.3236 13.3233 11.1995 13.5965 11.0661 13.8477C11.3907 13.6932 11.6953 13.5034 11.9747 13.2832C11.904 13.1751 11.8141 13.0671 11.7047 12.9619ZM12.6073 12.6856C12.5352 12.7673 12.4069 12.758 12.3358 12.6755C12.1895 12.506 12.0167 12.3498 11.8255 12.21C11.7654 12.166 11.7368 12.0903 11.755 12.0182C11.9128 11.3934 12.0174 10.7129 12.0509 9.99769C12.0552 9.90325 12.1326 9.82812 12.2271 9.82812H13.6143C13.7156 9.82812 13.7961 9.91394 13.7853 10.0146C13.677 11.0337 13.2506 11.9577 12.6073 12.6856ZM6.17457 12.21C6.23464 12.166 6.26317 12.0903 6.24495 12.0182C6.08724 11.3934 5.98269 10.7129 5.94915 9.99769C5.94473 9.90325 5.86743 9.82812 5.77288 9.82812H4.38569C4.28442 9.82812 4.20398 9.91394 4.21469 10.0146C4.32303 11.0337 4.74942 11.9577 5.3927 12.6856C5.46486 12.7673 5.59309 12.758 5.66426 12.6755C5.81043 12.506 5.98327 12.3498 6.17457 12.21ZM6.02523 13.2832C6.30478 13.5034 6.60932 13.6932 6.9339 13.8477C6.80052 13.5965 6.67647 13.3233 6.56436 13.0312C6.52134 12.9192 6.38173 12.8786 6.29527 12.9619C6.18592 13.0671 6.09598 13.1751 6.02523 13.2832ZM6.9339 5.15233C6.80052 5.40355 6.67647 5.67672 6.56436 5.96875C6.52134 6.08079 6.38173 6.12134 6.29527 6.03812C6.18592 5.93286 6.09598 5.82494 6.02523 5.71677C6.30478 5.49666 6.60932 5.30686 6.9339 5.15233ZM6.24495 6.98186C6.26317 6.90972 6.23464 6.83398 6.17457 6.79007C5.98327 6.65021 5.81043 6.494 5.66426 6.32456C5.59309 6.24205 5.46486 6.23274 5.3927 6.3144C4.74942 7.04227 4.32303 7.96632 4.21469 8.98536C4.20398 9.08606 4.28442 9.17188 4.38569 9.17188H5.77288C5.86743 9.17188 5.94473 9.09675 5.94915 9.00231C5.98269 8.28711 6.08724 7.60659 6.24495 6.98186ZM12.2271 9.17188C12.1326 9.17188 12.0552 9.09675 12.0509 9.00231C12.0174 8.28711 11.9128 7.60659 11.755 6.98186C11.7368 6.90972 11.7654 6.83398 11.8255 6.79007C12.0167 6.65021 12.1895 6.494 12.3358 6.32456C12.4069 6.24205 12.5352 6.23274 12.6073 6.3144C13.2506 7.04227 13.677 7.96632 13.7853 8.98536C13.7961 9.08606 13.7156 9.17188 13.6143 9.17188H12.2271ZM11.9747 5.71677C11.904 5.82494 11.8141 5.93286 11.7047 6.03812C11.6183 6.12134 11.4786 6.08079 11.4356 5.96875C11.3236 5.67672 11.1995 5.40355 11.0661 5.15233C11.3907 5.30685 11.6953 5.49665 11.9747 5.71677Z" fill="#00B2BF"/>
</svg>
