<svg width="14" height="14" viewBox="0 0 14 14" fill="none" xmlns="http://www.w3.org/2000/svg">
<path d="M3.75 1.00007C1.67893 1.00007 0 2.679 0 4.75007V10.25C0 12.3211 1.67893 14 3.75 14H9.2501C11.3212 14 13.0001 12.3211 13.0001 10.25V7.00007C13.0001 6.58586 12.6643 6.25007 12.2501 6.25007C11.8359 6.25007 11.5001 6.58586 11.5001 7.00007V10.25C11.5001 11.4927 10.4927 12.5 9.2501 12.5H3.75C2.50736 12.5 1.5 11.4927 1.5 10.25V4.75007C1.5 3.50743 2.50736 2.50007 3.75 2.50007H6C6.41421 2.50007 6.75 2.16428 6.75 1.75007C6.75 1.33586 6.41421 1.00007 6 1.00007H3.75Z" fill="#EEEFFC"/>
<path d="M11.1339 4.19461L9.71971 2.7804L5.52812 6.97196C4.77185 7.72823 4.25635 8.69144 4.0466 9.74022C4.03144 9.81602 4.09828 9.88282 4.17409 9.86772C5.22285 9.65792 6.18606 9.14242 6.94233 8.38618L11.1339 4.19461Z" fill="#EEEFFC"/>
<path d="M12.4559 0.456792C12.2663 0.393562 12.0571 0.442932 11.9158 0.584312L10.7803 1.71974L12.1945 3.13395L13.33 1.99852C13.4714 1.85714 13.5207 1.64802 13.4575 1.45834C13.2999 0.985472 12.9288 0.614412 12.4559 0.456792Z" fill="#EEEFFC"/>
</svg>
