<svg width="12" height="12" viewBox="0 0 12 12" fill="none" xmlns="http://www.w3.org/2000/svg">
<path d="M6.65625 1.625C6.65625 1.26257 6.36243 0.96875 6 0.96875C5.63757 0.96875 5.34375 1.26257 5.34375 1.625V5.34375H1.625C1.26257 5.34375 0.96875 5.63757 0.96875 6C0.96875 6.36243 1.26257 6.65625 1.625 6.65625H5.34375V10.375C5.34375 10.7374 5.63757 11.0313 6 11.0313C6.36243 11.0313 6.65625 10.7374 6.65625 10.375V6.65625H10.375C10.7374 6.65625 11.0313 6.36243 11.0313 6C11.0313 5.63757 10.7374 5.34375 10.375 5.34375H6.65625V1.625Z" fill="#858699"/>
</svg>
