<svg width="11" height="11" viewBox="0 0 11 11" fill="none" xmlns="http://www.w3.org/2000/svg">
<path d="M9.95479 0.5H7.0457C6.74445 0.5 6.50024 0.744208 6.50024 1.04545V3.95455C6.50024 4.25579 6.74445 4.5 7.0457 4.5H9.95479C10.256 4.5 10.5002 4.25579 10.5002 3.95455V1.04545C10.5002 0.744208 10.256 0.5 9.95479 0.5Z" fill="#858699"/>
<path d="M3.45455 0.5H0.545455C0.244208 0.5 0 0.744208 0 1.04545V3.95455C0 4.25579 0.244208 4.5 0.545455 4.5H3.45455C3.75579 4.5 4 4.25579 4 3.95455V1.04545C4 0.744208 3.75579 0.5 3.45455 0.5Z" fill="#858699"/>
<path d="M3.45455 7.00024H0.545455C0.244208 7.00024 0 7.24445 0 7.5457V10.4548C0 10.756 0.244208 11.0002 0.545455 11.0002H3.45455C3.75579 11.0002 4 10.756 4 10.4548V7.5457C4 7.24445 3.75579 7.00024 3.45455 7.00024Z" fill="#858699"/>
<path d="M9.95479 7.00024H7.0457C6.74445 7.00024 6.50024 7.24445 6.50024 7.5457V10.4548C6.50024 10.756 6.74445 11.0002 7.0457 11.0002H9.95479C10.256 11.0002 10.5002 10.756 10.5002 10.4548V7.5457C10.5002 7.24445 10.256 7.00024 9.95479 7.00024Z" fill="#858699"/>
</svg>
