<svg width="14" height="15" viewBox="0 0 14 15" fill="none" xmlns="http://www.w3.org/2000/svg">
<path fill-rule="evenodd" clip-rule="evenodd" d="M11.6541 10.2952L13.7544 11.1213C13.8576 11.1618 13.9394 11.2434 13.9801 11.3466C14.0511 11.5264 13.9828 11.7268 13.827 11.8284L13.755 11.8656L7.35645 14.3924C7.15935 14.4703 6.94372 14.4831 6.74052 14.4309L6.62035 14.3918L0.252592 11.8653C0.149902 11.8246 0.0686416 11.7432 0.0280616 11.6404C-0.0429304 11.4607 0.0253617 11.2603 0.181202 11.1587L0.253192 11.1215L2.34307 10.2962L6.06917 11.7751C6.65895 12.0091 7.31525 12.0097 7.9054 11.7766L11.6541 10.2952ZM11.6541 6.27688L13.7544 7.10289C13.8576 7.14346 13.9394 7.22508 13.9801 7.32824C14.0511 7.50803 13.9828 7.70839 13.827 7.81004L13.755 7.8472L9.6001 9.48825L8.619 9.875L7.35645 10.3741L7.317 10.386L7.23566 10.4132C7.20301 10.4215 7.17004 10.4282 7.13688 10.4331C7.12585 10.4346 7.11547 10.436 7.10507 10.4372C7.02541 10.4468 6.94422 10.4464 6.86397 10.4363L6.74052 10.4126L6.62035 10.3735L5.391 9.885L4.38907 9.48825L0.252592 7.84697C0.149902 7.80623 0.0686416 7.72483 0.0280616 7.62208C-0.0429304 7.44229 0.0253617 7.24192 0.181202 7.14029L0.253192 7.10312L2.34307 6.27788L6.06917 7.75677C6.65895 7.99078 7.31525 7.9913 7.9054 7.75824L11.6541 6.27688ZM6.62186 0.569889C6.85734 0.476905 7.11932 0.476696 7.35494 0.569309L13.7544 3.08452C13.8576 3.12509 13.9394 3.20671 13.9801 3.30987C14.0612 3.51534 13.9605 3.74769 13.755 3.82884L9.6001 5.46988L7.35565 6.356L7.27468 6.38396C7.25405 6.3901 7.23326 6.39557 7.21236 6.40036C7.09824 6.42674 6.98013 6.43258 6.86397 6.41788L6.74052 6.39419L6.62035 6.3551L0.252592 3.8286C0.149902 3.78786 0.0686416 3.70646 0.0280616 3.60371C-0.0530734 3.39823 0.0477217 3.16589 0.253192 3.08475L6.62186 0.569889Z" fill="#858699"/>
</svg>
