<svg width="14" height="15" viewBox="0 0 14 15" fill="none" xmlns="http://www.w3.org/2000/svg">
<path d="M4 12.5L3.99998 0.500092L0.40251 2.54566C0.15509 2.67502 0 2.93111 0 3.21031V13.7501C0 14.0203 0.14535 14.2696 0.38048 14.4027C0.61562 14.5359 0.90419 14.5322 1.13588 14.3932L4 12.5Z" fill="#858699"/>
<path d="M5 0.500092V12.5L8.99998 14.5V2.502L5 0.500092Z" fill="#858699"/>
<path d="M13.6935 11.6049L10 14.5V2.502L12.8641 0.60688C13.0958 0.467862 13.3844 0.464221 13.6195 0.59735C13.8547 0.73048 14 0.9798 14 1.25V11.0001C14 11.239 13.8862 11.4636 13.6935 11.6049Z" fill="#858699"/>
</svg>
