<svg width="13" height="13" viewBox="0 0 13 13" fill="none" xmlns="http://www.w3.org/2000/svg">
<path fill-rule="evenodd" clip-rule="evenodd" d="M8.46155 5.3845C8.46155 7.08384 7.08396 8.46143 5.38462 8.46143C3.68529 8.46143 2.3077 7.08384 2.3077 5.3845C2.3077 3.68517 3.68529 2.30758 5.38462 2.30758C7.08396 2.30758 8.46155 3.68517 8.46155 5.3845ZM8.15167 9.457C7.3631 9.99373 6.41051 10.3076 5.38462 10.3076C2.66568 10.3076 0.461548 8.10344 0.461548 5.3845C0.461548 2.66556 2.66568 0.461426 5.38462 0.461426C8.10357 0.461426 10.3077 2.66556 10.3077 5.3845C10.3077 6.41039 9.99386 7.36298 9.45712 8.15154L12.4988 11.1934C12.8593 11.5539 12.8593 12.1382 12.4988 12.4987C12.1383 12.8592 11.554 12.8592 11.1935 12.4987L8.15167 9.457Z" fill="#858699"/>
</svg>
