<svg width="14" height="14" viewBox="0 0 14 14" fill="none" xmlns="http://www.w3.org/2000/svg">
<g clip-path="url(#clip0_95_264)">
<path d="M9.20439 4.36622L8.27853 1.76481C8.17673 1.49455 8.00205 1.27192 7.77395 1.11504C7.54658 0.958668 7.27686 0.875 7.00071 0.875C6.72456 0.875 6.45484 0.958668 6.22748 1.11504C5.99937 1.27192 5.82469 1.49455 5.72712 1.75327L4.79717 4.36622H2.23594C1.95794 4.36601 1.68598 4.45091 1.45736 4.60958C1.22799 4.76878 1.05332 4.99461 0.957372 5.25645C0.861217 5.51887 0.848918 5.8045 0.922197 6.0742C0.995338 6.3434 1.15012 6.58338 1.36517 6.76156L3.57477 8.5786L2.64575 11.3403C2.55372 11.6141 2.55191 11.9098 2.64054 12.1846C2.72898 12.4587 2.90281 12.6974 3.13656 12.8664C3.36964 13.0348 3.65031 13.1253 3.93812 13.1247C4.22513 13.1244 4.50544 13.0332 4.73798 12.8643L7.00046 11.2195L9.26196 12.8637C9.4934 13.0326 9.77375 13.1242 10.0617 13.125C10.3496 13.1258 10.6305 13.0356 10.8637 12.8672C11.0977 12.6983 11.2717 12.4595 11.3604 12.1852C11.4492 11.9099 11.4474 11.614 11.3551 11.3402L10.4261 8.57681L12.6385 6.75857C12.8581 6.5727 13.01 6.33223 13.0806 6.06347C13.1397 5.83933 13.1396 5.60442 13.0816 5.38135L13.0394 5.24784C12.9421 4.98887 12.7678 4.76584 12.54 4.60839C12.3128 4.45144 12.0432 4.36704 11.7669 4.36623L9.20439 4.36622ZM11.8113 5.72968C11.8092 5.73766 11.8046 5.74492 11.7978 5.75071L9.36679 7.74857C9.22775 7.863 9.12686 8.01647 9.07716 8.18909C9.0272 8.3625 9.03122 8.54706 9.08906 8.71825L10.1111 11.7587C10.1138 11.7665 10.1139 11.7744 10.1114 11.7821C10.1089 11.7898 10.1034 11.7974 10.0956 11.803C10.0871 11.8091 10.0764 11.8125 10.0651 11.8125C10.0539 11.8125 10.0432 11.809 10.0348 11.8028L7.5251 9.97815C7.37235 9.86729 7.1888 9.8077 7.00048 9.8077C6.81215 9.8077 6.62856 9.86729 6.47617 9.97798L3.96628 11.8025C3.95781 11.8087 3.94712 11.8122 3.93606 11.8122C3.92458 11.8122 3.91398 11.8088 3.90538 11.8026C3.89762 11.7969 3.89223 11.7896 3.88964 11.7815C3.88723 11.7741 3.88727 11.7662 3.88979 11.7588L4.91219 8.71937C4.96966 8.54858 4.97374 8.3643 4.92387 8.19105C4.87413 8.01828 4.77312 7.86481 4.63438 7.75065L2.20069 5.74935C2.19559 5.74513 2.19089 5.73784 2.18878 5.73007C2.18679 5.72278 2.18712 5.71518 2.18975 5.708C2.1926 5.70021 2.19809 5.69313 2.20574 5.68781C2.21415 5.68197 2.22458 5.67872 2.23544 5.67872H5.09434C5.27842 5.67849 5.45724 5.62188 5.60721 5.51646C5.75796 5.41048 5.8722 5.26032 5.93388 5.08653L6.96579 2.18593C6.96261 2.19576 6.96272 2.20106 6.96272 2.20106C6.97959 2.19071 6.98995 2.1875 7.00071 2.1875C7.01147 2.1875 7.02182 2.19071 7.0302 2.19647C7.03783 2.20172 7.04333 2.20874 7.04623 2.21644L8.06775 5.08707C8.12921 5.26043 8.2437 5.41085 8.39481 5.5169C8.54515 5.6224 8.72447 5.67885 8.90802 5.67872H11.765C11.7743 5.67876 11.785 5.68212 11.7938 5.68817L11.8039 5.69748L11.8105 5.70866C11.8128 5.71548 11.8131 5.72269 11.8113 5.72968Z" fill="#4C4F6B"/>
</g>
<defs>
<clipPath id="clip0_95_264">
<rect width="14" height="14" fill="white"/>
</clipPath>
</defs>
</svg>
