<svg width="16" height="16" viewBox="0 0 16 16" fill="none" xmlns="http://www.w3.org/2000/svg">
<path d="M3.00011 1C2.46968 1 1.96097 1.21071 1.5859 1.58578C1.21083 1.96085 1.00012 2.46956 1.00012 2.99998V12.9999C1.00012 13.5303 1.21083 14.039 1.5859 14.4141C1.96097 14.7892 2.46968 14.9999 3.00011 14.9999H13C13.5305 14.9999 14.0392 14.7892 14.4142 14.4141C14.7893 14.039 15 13.5303 15 12.9999V2.99998C15 2.46956 14.7893 1.96085 14.4142 1.58578C14.0392 1.21071 13.5305 1 13 1H3.00011ZM6.91408 3.99998H8.65206L8.50006 9.60193H7.07008L6.91408 3.99998ZM8.72306 11.1639C8.71995 11.4117 8.62013 11.6485 8.44489 11.8237C8.26965 11.999 8.03287 12.0988 7.78507 12.1019C7.65991 12.106 7.53521 12.0849 7.41837 12.0398C7.30154 11.9948 7.19496 11.9267 7.10497 11.8396C7.01499 11.7525 6.94344 11.6482 6.89457 11.5329C6.8457 11.4176 6.82052 11.2936 6.82052 11.1684C6.82052 11.0432 6.8457 10.9192 6.89457 10.804C6.94344 10.6887 7.01499 10.5844 7.10497 10.4973C7.19496 10.4102 7.30154 10.3421 7.41837 10.297C7.53521 10.2519 7.65991 10.2308 7.78507 10.2349C8.28507 10.2349 8.71906 10.6519 8.72306 11.1639Z" fill="#F2994A"/>
</svg>
